<svg width="190" height="82" xmlns="http://www.w3.org/2000/svg">
 <g>
  <title>background</title>
  <rect fill="none" id="canvas_background" height="84" width="192" y="-1" x="-1"/>
  <g display="none" overflow="visible" y="0" x="0" height="100%" width="100%" id="canvasGrid">
   <rect fill="url(#gridpattern)" stroke-width="0" y="0" x="0" height="100%" width="100%"/>
  </g>
 </g>
 <g>
  <title>Layer 1</title>
  <path stroke="#000" id="svg_7" d="m8.31088,0.98397c-3.84426,0 -7.56088,1.54517 -7.56088,3.42469l0,45.3378c0,1.87951 3.09485,3.39262 6.93912,3.39262l31.00917,0c-1.28149,0.71716 -1.99106,1.49549 -1.99106,2.31316c0,3.49316 12.84486,6.32261 28.70271,6.32261c15.85784,0 28.7027,-2.82945 28.7027,-6.32261c0,-0.81767 -0.70957,-1.596 -1.99105,-2.31316l89.67623,0c3.84426,0 6.93912,-1.51311 6.93912,-3.39262l0,-45.3378c0,-1.87952 -3.09486,-3.39263 -6.93912,-3.39263l-174.1087,-0.01603zm34.06474,61.3917c-8.7131,0 -15.77071,1.65626 -15.77071,3.70104c0,2.04478 7.05761,3.70105 15.77071,3.70105c8.71311,0 15.77072,-1.65627 15.77072,-3.70105c0,-2.04478 -7.05761,-3.70104 -15.77072,-3.70104zm-15.77071,9.25261c-4.87934,0 -8.83161,1.2422 -8.83161,2.77578c0,1.53359 3.95227,2.77579 8.83161,2.77579c4.87934,0 8.8316,-1.2422 8.8316,-2.77579c0,-1.53358 -3.95226,-2.77578 -8.8316,-2.77578zm-15.13989,6.78525c-3.13672,0 -5.67746,0.69011 -5.67746,1.5421c0,0.85199 2.54074,1.5421 5.67746,1.5421c3.13672,0 5.67746,-0.69011 5.67746,-1.5421c0,-0.85199 -2.54074,-1.5421 -5.67746,-1.5421z" stroke-opacity="null" stroke-width="1.5" fill="none"/>
 </g>
</svg>
